<svg width="33" height="32" viewBox="0 0 33 32" fill="none" xmlns="http://www.w3.org/2000/svg">
<circle cx="16.7021" cy="16" r="16" fill="black" fill-opacity="0.5"/>
<path d="M18.1284 16.0123L23.4214 10.7193C23.5169 10.627 23.5931 10.5167 23.6455 10.3947C23.6979 10.2727 23.7255 10.1415 23.7267 10.0087C23.7278 9.87591 23.7025 9.74423 23.6523 9.62133C23.602 9.49844 23.5277 9.38679 23.4338 9.29289C23.3399 9.199 23.2283 9.12475 23.1054 9.07447C22.9825 9.02419 22.8508 8.99888 22.718 9.00004C22.5853 9.00119 22.454 9.02878 22.332 9.08119C22.21 9.1336 22.0997 9.20978 22.0074 9.30529L16.7144 14.5983L11.4214 9.30529C11.2328 9.12313 10.9802 9.02234 10.718 9.02461C10.4558 9.02689 10.205 9.13206 10.0196 9.31747C9.83421 9.50288 9.72904 9.75369 9.72676 10.0159C9.72448 10.2781 9.82528 10.5307 10.0074 10.7193L15.3004 16.0123L10.0074 21.3053C9.91193 21.3975 9.83574 21.5079 9.78334 21.6299C9.73093 21.7519 9.70334 21.8831 9.70219 22.0159C9.70103 22.1487 9.72633 22.2803 9.77661 22.4032C9.8269 22.5261 9.90115 22.6378 9.99504 22.7317C10.0889 22.8256 10.2006 22.8998 10.3235 22.9501C10.4464 23.0004 10.5781 23.0257 10.7108 23.0245C10.8436 23.0234 10.9748 22.9958 11.0968 22.9434C11.2188 22.891 11.3292 22.8148 11.4214 22.7193L16.7144 17.4263L22.0074 22.7193C22.196 22.9014 22.4486 23.0022 22.7108 23C22.973 22.9977 23.2238 22.8925 23.4093 22.7071C23.5947 22.5217 23.6998 22.2709 23.7021 22.0087C23.7044 21.7465 23.6036 21.4939 23.4214 21.3053L18.1284 16.0123Z" fill="white"/>
</svg>
